<svg width="14" height="15" viewBox="0 0 14 15" fill="none" xmlns="http://www.w3.org/2000/svg">
<path fill-rule="evenodd" clip-rule="evenodd" d="M7 14.7444C10.866 14.7444 14 11.6104 14 7.74438C14 3.87838 10.866 0.744385 7 0.744385C3.134 0.744385 0 3.87838 0 7.74438C0.004 11.6084 3.136 14.7404 7 14.7444ZM7 1.74438C10.3137 1.74438 13 4.43038 13 7.74438C13 11.0584 10.3137 13.7444 7 13.7444C3.6863 13.7444 1 11.0584 1 7.74438C1.0037 4.43238 3.6878 1.74838 7 1.74438ZM7.5 8.74438C7.8682 8.74438 8.1667 8.44638 8.1667 8.07738V4.24438C8.1667 3.96838 7.9428 3.74438 7.6667 3.74438C7.3905 3.74438 7.1667 3.96838 7.1667 4.24438V7.74438H5.1667C4.8905 7.74438 4.6667 7.96838 4.6667 8.24438C4.6667 8.52038 4.8905 8.74438 5.1667 8.74438H7.5Z" fill="#7F8B99"/>
</svg>
