<svg width="16" height="15" viewBox="0 0 16 15" fill="none" xmlns="http://www.w3.org/2000/svg">
<path fill-rule="evenodd" clip-rule="evenodd" d="M13.9583 3.71933H11.667V2.29033C11.667 1.50133 11.0503 0.861328 10.2916 0.861328H5.70899C4.95029 0.861328 4.33359 1.50233 4.33359 2.29033V3.71933H2.04229C1.28359 3.71933 0.666992 4.35933 0.666992 5.14733V12.7663C0.666992 13.5553 1.28359 14.1953 2.04229 14.1953H13.959C14.717 14.1953 15.3336 13.5543 15.3336 12.7663V5.14833C15.3336 4.36033 14.717 3.71933 13.9583 3.71933ZM5.25031 2.29033C5.25031 2.02733 5.45561 1.81433 5.70831 1.81433H10.2923C10.545 1.81433 10.7503 2.02733 10.7503 2.29033V3.71933H5.25031V2.29033ZM14.417 12.7663C14.4214 13.0243 14.2163 13.2373 13.9583 13.2423H2.0423C1.7843 13.2373 1.5792 13.0243 1.5836 12.7663V8.48132H6.167V9.24332C6.167 9.61132 6.4654 9.90932 6.8336 9.90932H9.167C9.5352 9.90932 9.8336 9.61132 9.8336 9.24332V8.48132H14.417V12.7673V12.7663ZM14.417 7.52833H9.83359V7.24233C9.83359 6.87433 9.53519 6.57533 9.16699 6.57533H8.91699V8.95732H7.08359V7.52833H8.91699V6.57533H6.83359C6.46539 6.57533 6.16699 6.87433 6.16699 7.24233V7.52833H1.58359V5.14733C1.58359 4.88433 1.78899 4.67133 2.04229 4.67133H13.959C14.2116 4.67133 14.417 4.88433 14.417 5.14733V7.52833Z" fill="#393F47"/>
</svg>
