<svg xmlns="http://www.w3.org/2000/svg" xmlns:xlink="http://www.w3.org/1999/xlink" viewBox="0 0 192 32"><path d="M 118.842 14.274 L 123.317 9.038 L 126.403 9.038 L 126.403 23.146 L 123.289 23.146 L 123.289 13.943 L 119.103 18.365 L 118.587 18.365 L 114.44 13.943 L 114.44 23.146 L 111.344 23.146 L 111.344 9.038 L 114.378 9.038 Z" fill="rgb(255,255,255)"></path><path d="M 81.815 13.35 L 78.837 13.35 L 78.837 23.215 L 81.815 23.215 Z M 78.833 9.112 L 78.833 11.281 L 81.815 11.281 L 81.815 9.112 Z" fill="rgb(255,255,255)"></path><path d="M 82.808 20.052 C 82.638 22.806 84.371 23.412 86.971 23.412 C 89.442 23.412 90.965 22.123 90.965 20.404 C 90.965 17.244 85.725 17.314 85.725 15.757 C 85.725 15.092 86.083 14.701 86.739 14.701 C 87.014 14.673 87.289 14.751 87.5 14.915 C 87.71 15.09 87.794 15.5 87.794 16.184 L 90.709 16.184 C 90.879 14.055 89.041 13.158 87.013 13.158 C 85.089 13.158 82.808 13.801 82.808 15.932 C 82.808 19.074 88.047 18.609 88.047 20.698 C 88.063 20.972 87.952 21.238 87.743 21.432 C 87.533 21.625 87.245 21.727 86.949 21.711 C 86.357 21.711 86.042 21.556 85.87 21.244 C 85.73 20.861 85.68 20.456 85.724 20.054 Z M 104.42 13.348 L 101.441 13.348 L 101.441 23.214 L 104.42 23.214 L 104.42 16.417 C 104.42 15.538 104.591 14.854 105.542 14.854 C 106.493 14.854 106.664 15.538 106.664 16.417 L 106.664 23.214 L 109.643 23.214 L 109.643 15.303 C 109.643 13.935 108.395 13.155 106.981 13.155 C 105.859 13.155 105.055 13.465 104.464 14.348 L 104.42 14.348 Z M 137.067 13.348 L 137.067 23.214 L 140.044 23.214 L 140.044 17.843 C 140.044 16.866 140.087 15.46 142.71 15.614 L 142.71 13.156 C 141.504 13.156 140.499 13.489 139.941 14.621 L 139.897 14.621 L 139.897 13.35 L 137.067 13.35 Z M 157.77 23.217 L 160.858 23.217 C 160.789 22.566 160.754 21.913 160.75 21.26 L 160.75 13.348 L 157.77 13.348 L 157.77 20.189 C 157.77 21.067 157.603 21.71 156.651 21.71 C 155.701 21.71 155.532 21.067 155.532 20.188 L 155.532 13.35 L 152.551 13.35 L 152.551 21.261 C 152.551 22.632 153.799 23.413 155.214 23.413 C 156.334 23.413 157.136 23.101 157.729 22.219 L 157.77 22.219 L 157.77 23.215 Z M 171.001 15.051 L 172.206 15.051 L 172.206 21.126 C 172.206 21.732 172.544 23.313 175.123 23.313 C 175.639 23.31 176.154 23.277 176.666 23.214 L 176.666 21.515 C 176.491 21.548 176.313 21.56 176.137 21.553 C 175.165 21.553 175.188 21.067 175.188 20.324 L 175.188 15.05 L 176.73 15.05 L 176.73 13.348 L 175.188 13.348 L 175.188 10.56 L 172.206 11.79 L 172.206 13.352 L 171.001 13.352 L 171.001 15.054 L 171.001 15.05 Z" fill="rgb(255,255,255)"></path><path d="M 176.661 15.051 L 177.866 15.051 L 177.866 21.126 C 177.866 21.732 178.204 23.313 180.781 23.313 C 181.298 23.31 181.814 23.277 182.326 23.214 L 182.326 21.515 C 182.151 21.548 181.973 21.56 181.797 21.553 C 180.825 21.553 180.846 21.067 180.846 20.324 L 180.846 15.05 L 182.39 15.05 L 182.39 13.348 L 180.846 13.348 L 180.846 10.56 L 177.866 11.79 L 177.866 13.352 L 176.661 13.352 L 176.661 15.054 L 176.661 15.05 Z M 67.863 21.379 L 67.863 16.456 C 67.863 14.658 67.375 13.155 63.593 13.155 C 62.452 13.155 61.481 13.341 60.805 13.799 C 60.129 14.255 59.697 15.012 59.697 16.203 L 62.614 16.203 C 62.614 15.42 62.698 14.698 63.734 14.698 C 64.809 14.698 64.94 15.304 64.94 16.143 L 64.94 16.905 C 62.173 16.865 59.447 17.002 59.447 20.266 C 59.447 21.985 60.206 23.412 62.277 23.412 C 63.567 23.412 64.434 22.923 65.067 21.907 L 65.126 21.907 L 65.252 23.208 L 68.02 23.208 C 67.939 22.609 67.863 21.977 67.863 21.379 Z M 63.467 21.71 C 62.496 21.71 62.367 20.853 62.367 20.149 C 62.367 18.39 63.467 18.507 64.946 18.447 C 64.946 19.522 65.22 21.709 63.467 21.709 Z M 74.457 9.112 L 74.457 14.29 L 74.416 14.29 C 73.813 13.45 73.062 13.156 71.985 13.156 C 68.986 13.156 69.071 16.223 69.071 18.215 C 69.071 20.248 68.963 23.418 72.05 23.418 C 73.19 23.418 74.013 23.084 74.565 22.129 L 74.606 22.129 L 74.606 23.221 L 77.436 23.221 L 77.436 9.112 Z M 73.252 21.71 C 72.174 21.71 71.983 20.678 71.983 18.194 C 71.983 16.223 71.96 14.849 73.252 14.849 C 74.475 14.849 74.457 16.217 74.457 18.194 C 74.457 20.676 74.266 21.71 73.253 21.71 Z M 96.033 13.155 C 92.1 13.155 91.678 15.459 91.678 18.154 C 91.678 21.241 92.187 23.412 96.033 23.412 C 99.878 23.412 100.384 21.234 100.384 18.154 C 100.384 15.459 99.962 13.155 96.033 13.155 Z M 96.033 21.652 C 94.932 21.652 94.66 21.009 94.66 17.999 C 94.66 15.956 94.764 14.913 96.033 14.913 C 97.3 14.913 97.405 15.948 97.405 18.001 C 97.405 21.009 97.131 21.653 96.033 21.653 Z M 135.645 21.379 L 135.645 16.456 C 135.645 14.658 135.158 13.155 131.377 13.155 C 130.237 13.155 129.264 13.341 128.589 13.799 C 127.913 14.255 127.49 15.012 127.49 16.203 L 130.407 16.203 C 130.407 15.42 130.489 14.698 131.526 14.698 C 132.604 14.698 132.733 15.304 132.733 16.143 L 132.733 16.905 C 129.963 16.865 127.239 17.002 127.239 20.266 C 127.239 21.985 127.998 23.412 130.069 23.412 C 131.359 23.412 132.226 22.923 132.86 21.907 L 132.904 21.907 L 133.025 23.208 L 135.798 23.208 C 135.731 22.609 135.645 21.977 135.645 21.379 Z M 131.251 21.71 C 130.278 21.71 130.151 20.853 130.151 20.149 C 130.151 18.39 131.251 18.507 132.731 18.447 C 132.731 19.522 133.006 21.709 131.251 21.709 Z M 148.405 13.348 L 148.405 14.445 L 148.364 14.445 C 147.813 13.487 146.992 13.154 145.849 13.154 C 142.764 13.154 142.873 16.314 142.873 18.359 C 142.873 20.351 142.784 23.42 145.787 23.42 C 146.864 23.42 147.597 23.126 148.215 22.283 L 148.258 22.283 L 148.258 27.464 L 151.237 27.464 L 151.237 13.348 Z M 147.054 21.711 C 145.976 21.711 145.787 20.679 145.787 18.196 C 145.787 16.224 145.764 14.85 147.054 14.85 C 148.28 14.85 148.259 16.218 148.259 18.195 C 148.258 20.676 148.067 21.709 147.054 21.709 Z M 166.158 13.155 C 162.23 13.155 161.805 15.459 161.805 18.154 C 161.805 21.241 162.315 23.412 166.158 23.412 C 167.554 23.412 168.612 23.059 169.308 22.455 C 170.004 21.85 170.406 20.968 170.45 19.894 L 167.434 19.894 C 167.434 20.714 167.234 21.652 166.164 21.652 C 164.855 21.652 164.813 19.894 164.813 18.721 L 170.516 18.721 C 170.615 15.559 170.175 13.155 166.158 13.155 Z M 167.533 17.178 L 164.807 17.178 C 164.807 16.339 164.787 14.854 166.158 14.854 C 167.574 14.854 167.533 16.216 167.533 17.178 Z M 187.204 13.155 C 183.273 13.155 182.847 15.459 182.847 18.154 C 182.847 21.241 183.358 23.412 187.204 23.412 C 188.597 23.412 189.654 23.059 190.35 22.455 C 191.046 21.85 191.452 20.968 191.496 19.894 L 188.481 19.894 C 188.481 20.714 188.279 21.652 187.214 21.652 C 185.903 21.652 185.859 19.894 185.859 18.721 L 191.569 18.721 C 191.663 15.559 191.218 13.155 187.204 13.155 Z M 188.575 17.178 L 185.849 17.178 C 185.849 16.339 185.829 14.854 187.204 14.854 C 188.617 14.854 188.575 16.216 188.575 17.178 Z M 51.176 14.301 L 55.651 9.065 L 58.737 9.065 L 58.737 23.172 L 55.622 23.172 L 55.622 13.97 L 51.439 18.392 L 50.921 18.392 L 46.776 13.97 L 46.776 23.172 L 43.678 23.172 L 43.678 9.065 L 46.708 9.065 L 51.176 14.3 Z M 11.313 26.847 L 1.306 20.563 C 3.896 28.33 12.513 32.948 21.091 31.167 C 29.669 29.386 35.322 21.804 34.07 13.759 L 11.314 26.847 Z" fill="rgb(255,255,255)"></path><path d="M 1.758 10.227 C 1.095 11.762 0.703 13.385 0.597 15.034 L 11.225 21.843 L 32.76 9.596 C 32.1 8.182 31.224 6.863 30.16 5.678 L 11.263 16.321 Z" fill="rgb(255,255,255)"></path><path d="M 11.228 11.215 L 26.192 2.706 C 18.814 -1.464 9.218 0.21 3.991 6.579 Z" fill="rgb(255,255,255)"></path></svg>