<svg width="11" height="16" viewBox="0 0 11 16" fill="none" xmlns="http://www.w3.org/2000/svg">
<path fill-rule="evenodd" clip-rule="evenodd" d="M5.5 4.02877C6.3284 4.02877 7 4.70077 7 5.52877C7 6.35677 6.3284 7.02877 5.5 7.02877C4.6716 7.02877 4 6.35677 4 5.52877C4 4.70077 4.6716 4.02877 5.5 4.02877ZM5.5 3.02877C4.1193 3.02877 3 4.14777 3 5.52877C3 6.90977 4.1193 8.02877 5.5 8.02877C6.8807 8.02877 8 6.90977 8 5.52877C8 4.14777 6.8807 3.02877 5.5 3.02877ZM5.5 1.02877C7.9445 0.992766 9.9573 2.94177 10 5.38577C10 6.32977 9.686 7.24577 9.1067 7.99177L9.0907 8.01277L9.0747 8.03577L5.5 13.2578L1.9253 8.03577L1.9093 8.01277L1.8927 7.99077C1.3139 7.24577 0.9998 6.32977 1 5.38577C1.0431 2.94177 3.0557 0.993766 5.5 1.02977V1.02877ZM5.5 0.0287658C2.5025 -0.00923423 0.041 2.38877 0 5.38577C0.0011 6.54977 0.388 7.68077 1.1 8.60077L5.5 15.0288L9.9 8.59977C10.6118 7.67977 10.9986 6.54977 11 5.38677C10.9594 2.38877 8.4978 -0.00923423 5.5 0.0287658Z" fill="#7F8B99"/>
</svg>
